<svg version="1.0" xmlns="http://www.w3.org/2000/svg" width="256.000000pt" height="256.000000pt" viewBox="0 0 256.000000 256.000000" preserveAspectRatio="xMidYMid meet">
    <g transform="translate(0.000000,256.000000) scale(0.100000,-0.100000)" fill="#900" stroke="none">
        <path d="M1110 2353 c-241 -47 -437 -148 -596 -307 -136 -135 -233 -306 -286 -499 -20 -71 -23 -106 -23 -267 0 -161 3 -196 23 -267 107 -391 394 -678 785 -785 71 -20 106 -23 267 -23 161 0 196 3 267 23 391 107 678 394 785 785 20 71 23 106 23 267 0 161 -3 196 -23 267 -106 389 -394 678 -780 784 -61 17 -112 22 -247 24 -93 2 -181 1 -195 -2z m-277 -545 c8 -13 30 -83 48 -155 l34 -133 467 0 c438 0 468 -1 477 -18 13 -24 -131 -511 -156 -529 -24 -19 -702 -19 -725 0 -11 8 -48 138 -108 372 -50 198 -93 368 -96 378 -3 9 -15 17 -27 17 -30 0 -67 27 -67 49 0 30 22 41 82 41 49 0 60 -3 71 -22z m391 -899 c101 -79 52 -229 -74 -229 -126 0 -175 150 -74 229 36 29 112 29 148 0z m356 6 c83 -43 82 -177 -1 -221 -89 -46 -189 15 -189 116 0 36 6 48 39 81 32 33 45 39 80 39 23 0 55 -7 71 -15z"/>
        <path d="M940 1430 c0 -6 21 -94 46 -195 l47 -185 310 2 310 3 57 193 57 192 -413 0 c-274 0 -414 -3 -414 -10z"/>
        <path d="M1120 836 c-28 -35 11 -93 48 -70 35 22 22 84 -18 84 -10 0 -23 -7 -30 -14z"/>
        <path d="M1486 834 c-9 -8 -16 -22 -16 -29 0 -7 7 -21 16 -29 30 -30 74 -13 74 29 0 42 -44 59 -74 29z"/>
    </g>
</svg>